<svg width="28" height="29" viewBox="0 0 28 29" fill="none" xmlns="http://www.w3.org/2000/svg">
<g clip-path="url(#clip0_1546_51281)">
<path d="M23.625 21.0188C23.625 26.3125 19.3375 26.3125 14 26.3125C8.6625 26.3125 4.375 26.3125 4.375 21.0188C4.375 15.725 8.70625 7.0625 14 7.0625C19.2937 7.0625 23.625 15.6813 23.625 21.0188Z" fill="#DBB471"/>
<path opacity="0.5" d="M23.6258 21.0188C23.6258 19.225 23.1445 17.0375 22.2695 14.9375C22.4445 16.2937 22.0945 18.7 17.9383 19.6188C12.032 20.8875 15.0945 22.55 12.7758 22.7688C10.807 22.9438 5.55703 22.1563 4.50703 19.1813C4.41953 19.8375 4.33203 20.45 4.33203 21.0625C4.37578 26.3125 8.70703 26.3125 14.0008 26.3125C19.2945 26.3125 23.6258 26.3125 23.6258 21.0188Z" fill="#89664C"/>
<path d="M16.5812 18.4816C16.4062 17.6066 15.6624 17.3441 14.8749 17.3004V16.0754C15.0937 16.1629 15.3562 16.2941 15.5312 16.4254C15.8812 16.6441 16.2312 16.0754 15.8812 15.8566C15.5749 15.6816 15.2249 15.5066 14.8749 15.3754V13.9316C14.8749 13.4941 14.2187 13.4941 14.2187 13.9316V15.2004C13.8687 15.1566 13.5187 15.1566 13.1687 15.2004C13.1249 14.8941 13.0374 14.5879 12.9499 14.2816C12.8624 13.8441 12.2062 14.0191 12.3374 14.4566C12.4249 14.7629 12.4687 15.0691 12.5562 15.3754C12.5124 15.3754 12.5124 15.3754 12.4687 15.4191C11.5937 15.7691 11.0249 16.6441 11.6812 17.4754C11.9874 17.8691 12.3812 18.0004 12.8187 18.0879C12.8624 18.6566 12.8624 19.2254 12.8624 19.7941C12.5562 19.6191 12.2937 19.3566 12.0749 19.1379C11.7687 18.8316 11.3312 19.3129 11.5937 19.6191C11.9874 20.0566 12.4249 20.3629 12.8624 20.5816C12.8624 21.0629 12.9062 21.5441 12.9499 22.0254C12.9937 22.4629 13.6499 22.4629 13.6062 22.0254C13.5624 21.5879 13.5187 21.1941 13.5187 20.7566C13.7812 20.8004 14.0437 20.8004 14.3062 20.8004C14.3499 21.2379 14.3937 21.6754 14.4374 22.1566C14.4812 22.5941 15.1374 22.5941 15.0937 22.1566C15.0499 21.6754 15.0062 21.1941 14.9624 20.6691C15.9249 20.3191 16.7999 19.5754 16.5812 18.4816ZM14.2187 15.8566V17.3004C13.9999 17.3004 13.8249 17.3441 13.6499 17.3441H13.4312L13.2999 15.7691C13.6062 15.7691 13.9124 15.8129 14.2187 15.8566ZM12.6437 17.2566C12.4687 17.2129 12.2937 17.0816 12.1187 16.9504C11.7249 16.5566 12.2937 16.2066 12.6437 16.0316C12.6874 16.4691 12.7312 16.8629 12.7749 17.3004C12.7312 17.3004 12.6874 17.3004 12.6437 17.2566ZM14.0874 20.0566C13.8687 20.1004 13.6937 20.0566 13.5187 20.0129C13.4749 19.3566 13.4749 18.7004 13.4749 18.0004C13.7374 18.0004 13.9999 17.9566 14.2624 17.9566C14.2624 18.6566 14.3062 19.3129 14.3062 20.0129C14.2187 20.0566 14.1749 20.0566 14.0874 20.0566ZM15.5312 19.5754C15.3562 19.7066 15.1374 19.7941 14.9624 19.8816C14.9187 19.2254 14.9187 18.6129 14.9187 17.9566H15.1374C15.9687 18.1316 16.1874 19.0504 15.5312 19.5754Z" fill="#89664C"/>
<path d="M14.8754 24.5625H13.8691V26.3125L17.9379 28.5L27.1254 25.6562V24.125L23.7566 22.1562L14.8754 24.5625Z" fill="#699635"/>
<path d="M14 23.5563C14 23.5563 15.05 25.2625 18.025 26.75C18.025 26.75 22.6625 26.5313 27.125 23.5563C27.125 23.5563 24.5438 22.2875 23.8 20.625C23.8 20.625 22.05 23.075 14 23.5563Z" fill="#83BF4F"/>
<path d="M12.0305 24.5184L12.993 24.4746L13.1242 26.0934L9.31797 28.4996L0.174219 26.5309L0.0429688 25.0871L3.14922 22.9434L12.0305 24.5184Z" fill="#699635"/>
<path d="M12.775 23.5125C12.775 23.5125 11.8562 25.2188 9.1 26.8375C9.1 26.8375 4.59375 26.9688 0 24.5625C0 24.5625 2.45 23.1625 3.01875 21.5C3.01875 21.5 4.94375 23.6875 12.775 23.5125Z" fill="#83BF4F"/>
<path d="M10.5871 23.9939C10.5871 23.9939 10.4559 24.3439 11.0684 24.3876L9.44961 25.7439C9.44961 25.7439 8.48711 25.6564 8.26836 26.3126C8.26836 26.3126 4.33086 25.8751 1.79336 24.7376C1.79336 24.7376 2.31836 24.3439 1.66211 24.0814C1.66211 24.0814 2.40586 23.5564 2.58086 23.0751C2.58086 23.0751 3.28086 23.1626 3.49961 22.6376C3.58711 22.5939 6.21211 24.1689 10.5871 23.9939Z" stroke="#699635" stroke-width="0.25" stroke-miterlimit="10"/>
<path d="M3.85078 24.6062C4.30987 24.6062 4.68203 24.3516 4.68203 24.0375C4.68203 23.7234 4.30987 23.4688 3.85078 23.4688C3.39169 23.4688 3.01953 23.7234 3.01953 24.0375C3.01953 24.3516 3.39169 24.6062 3.85078 24.6062Z" fill="#699635"/>
<path d="M8.31211 23.3383C8.31211 23.3383 7.30586 24.6508 5.11836 26.4445L5.24961 27.6258L3.71836 27.2758L3.63086 26.007C3.63086 26.007 5.86211 23.9508 6.34336 22.9445C6.29961 22.9445 7.08711 23.207 8.31211 23.3383ZM18.4184 23.032C18.4184 23.032 18.8121 24.082 21.7871 26.007V27.2758L23.4934 26.7508V25.4383C23.4934 25.4383 21.4371 23.9945 20.2121 22.5508L18.4184 23.032Z" fill="#F9F3D9"/>
<path d="M15.925 21.6305L14.9625 21.5867L14.875 23.3805L18.7688 25.8742L27.9125 23.3805L27.9563 21.8055L24.7625 19.5742L15.925 21.6305Z" fill="#699635"/>
<path d="M15.1367 20.5375C15.1367 20.5375 16.0992 22.375 18.943 24.0375C18.943 24.0375 23.493 24.0375 27.9992 21.2375C27.9992 21.2375 25.5055 19.7937 24.893 18C24.893 18 23.0117 20.45 15.1367 20.5375Z" fill="#83BF4F"/>
<path d="M17.1062 21.018C17.1062 21.018 17.325 21.368 16.625 21.4992L18.4625 22.943C18.4625 22.943 19.5125 22.6805 19.8625 23.293C19.8625 23.293 24.2375 22.5055 26.25 21.4555C26.25 21.4555 25.5938 21.1492 26.25 20.7555C26.25 20.7555 25.4625 20.0992 25.1562 19.6617C25.1562 19.6617 24.4125 19.8805 24.0188 19.3555C24.0188 19.3992 22.4437 20.7992 17.1062 21.018Z" stroke="#699635" stroke-width="0.25" stroke-miterlimit="10"/>
<path d="M20.4759 22.1124C20.3009 22.3312 19.7321 22.4187 19.2509 22.2874C18.7696 22.1562 18.5509 21.8499 18.7259 21.6312C18.9009 21.4124 19.4696 21.3249 19.9509 21.4562C20.4321 21.5874 20.6509 21.8499 20.4759 22.1124Z" fill="#699635"/>
<path d="M19.5996 20.1883C19.5996 20.1883 20.6496 21.5883 22.8809 23.4695L22.8371 24.782L24.3684 24.3445L24.4121 22.9445C24.4121 22.9445 22.1371 20.757 21.5684 19.707C21.6121 19.707 20.8684 20.0133 19.5996 20.1883Z" fill="#F9F3D9"/>
<path d="M20.125 1.375C20.125 4.04375 16.6687 8.375 14 8.375C11.3312 8.375 7.875 4.48125 7.875 1.8125C7.875 -0.85625 8.26875 1.8125 10.9375 1.8125C11.3312 1.8125 13.1687 0.5 14 0.5C14.5687 0.5 16.1875 1.8125 17.0625 1.8125C19.3813 1.8125 20.125 -0.6375 20.125 1.375Z" fill="#DBB471"/>
<path d="M13.2133 6.31885C12.9508 6.49385 11.6821 6.3626 11.2883 6.66885C10.7633 7.0626 11.5071 7.98135 10.9821 8.5501C9.93209 9.6001 9.10084 10.7813 9.36334 11.4376C9.80084 12.5751 10.6321 9.3376 11.3758 10.5626C12.1196 11.7876 11.9883 9.73135 13.1258 10.7813C14.2633 11.8313 13.3008 8.9001 14.3946 10.1688C15.4883 11.4376 15.5321 12.8813 16.3196 12.8813C17.2383 12.8813 15.3571 9.4251 16.5821 10.2563C17.8071 11.0876 19.1633 10.7813 17.9383 9.5126C17.5446 9.11885 17.0196 8.41885 16.4071 7.80635C16.1883 7.5876 16.3633 6.4501 16.1446 6.2751C15.8821 6.05635 15.2258 6.75635 14.9633 6.6251C14.4383 6.3626 14.6133 6.84385 13.8258 6.9751C13.3008 7.1501 13.7383 5.96885 13.2133 6.31885Z" fill="#89664C"/>
<path d="M8.18083 8.8994C9.88708 7.28065 12.9933 8.1994 14.8308 8.9869C16.6246 9.7744 17.7183 7.28065 16.5808 6.0119C15.9246 5.26815 14.8746 6.14315 14.4808 6.66815C14.0433 7.19315 13.6933 7.7619 13.2121 8.2869C12.5121 9.0744 10.8058 8.41815 11.3308 7.3244C11.8996 6.1869 14.3058 7.4994 15.0933 7.71815C16.6246 8.15565 18.2433 8.33065 19.7746 7.7619C20.2996 7.5869 20.0808 6.7119 19.5558 6.93065C17.8496 7.54315 16.1433 7.1494 14.5246 6.6244C13.6933 6.3619 12.3808 5.6619 11.5058 6.05565C9.01208 7.2369 11.3308 10.6056 13.4308 9.29315C13.9121 8.9869 14.2183 8.50565 14.5683 8.06815C14.7871 7.80565 15.8808 6.14315 16.1433 6.9744C16.2746 7.4119 16.1433 8.1994 15.6621 8.33065C15.3558 8.4619 14.7433 8.0244 14.4371 7.9369C13.8683 7.71815 13.2996 7.54315 12.6871 7.4119C11.0683 7.0619 8.88083 7.1494 7.61208 8.33065C7.17458 8.68065 7.78708 9.29315 8.18083 8.8994Z" fill="#E8E8E8"/>
<path d="M19.6 0.71875C19.1625 1.06875 18.375 1.8125 17.0625 1.8125C16.1875 1.8125 14.5687 0.5 14 0.5C13.1687 0.5 11.3312 1.8125 10.9375 1.8125C9.49375 1.8125 8.70625 1.06875 8.3125 0.7625C8.3125 0.7625 8.79375 2.73125 10.2812 3.7375C11.375 4.4375 11.2438 3.60625 11.8125 2.81875C12.3812 2.03125 12.775 1.6375 13.7812 3.60625C14.3063 4.7 15.3125 0.63125 16.1 1.94375C17.5437 4.35 18.0687 3.0375 19.6 0.71875Z" fill="#89664C"/>
<path d="M22.9249 23.4254L22.8811 24.7379L24.4124 24.3004L24.4561 22.9004C24.4561 22.9441 23.5374 23.2941 22.9249 23.4254ZM21.7874 26.0504V27.3191L23.4936 26.7941V25.4816C23.4499 25.4379 23.0124 25.7004 21.7874 26.0504ZM5.11861 26.4004L5.24986 27.6254L3.71861 27.2754L3.63111 26.0066C3.58736 26.0066 4.19986 26.2254 5.11861 26.4004Z" fill="#DBB471"/>
</g>
<defs>
<clipPath id="clip0_1546_51281">
<rect width="28" height="28" fill="white" transform="translate(0 0.5)"/>
</clipPath>
</defs>
</svg>
