<svg width="28" height="29" viewBox="0 0 28 29" fill="none" xmlns="http://www.w3.org/2000/svg">
<g clip-path="url(#clip0_1546_51437)">
<path fill-rule="evenodd" clip-rule="evenodd" d="M17.8118 15.8651C18.7818 15.9451 19.7478 16.3771 20.6558 17.1791C21.5778 16.3991 22.5518 15.9811 23.5218 15.9151C24.0939 15.8788 24.6672 15.9659 25.2028 16.1705C25.7383 16.3751 26.2236 16.6925 26.6258 17.1011C28.1298 18.5971 28.6138 21.3491 26.6598 23.2331L26.6398 23.2531L21.3138 28.0931C21.1297 28.2606 20.8897 28.3534 20.6408 28.3534C20.3919 28.3534 20.1519 28.2606 19.9678 28.0931L14.6438 23.2531L14.6098 23.2211C12.6698 21.2911 13.1758 18.5251 14.6938 17.0291C15.0979 16.6204 15.5861 16.3046 16.1246 16.1036C16.663 15.9026 17.2387 15.8212 17.8118 15.8651Z" fill="#2859C5"/>
<path fill-rule="evenodd" clip-rule="evenodd" d="M17.7395 2.50012C17.9994 2.50323 18.254 2.57381 18.4784 2.70493C18.7028 2.83606 18.8893 3.02324 19.0195 3.24812L23.0695 10.2481C23.1682 10.4187 23.2322 10.6071 23.258 10.8024C23.2839 10.9977 23.271 11.1963 23.2201 11.3866C23.1692 11.577 23.0813 11.7555 22.9615 11.9118C22.8416 12.0682 22.6921 12.1995 22.5215 12.2981C22.3509 12.3967 22.1626 12.4608 21.9673 12.4866C21.7719 12.5125 21.5734 12.4996 21.383 12.4487C21.1927 12.3978 21.0142 12.3099 20.8578 12.1901C20.7014 12.0702 20.5702 11.9207 20.4715 11.7501L17.6835 6.93012L9.88553 19.6601C9.75375 19.8752 9.56985 20.0536 9.35085 20.1788C9.13184 20.3039 8.88481 20.3718 8.6326 20.3762C8.38039 20.3806 8.13115 20.3213 7.90793 20.2038C7.68471 20.0864 7.49472 19.9145 7.35553 19.7041L3.74953 14.2501H1.51953C1.12171 14.2501 0.740176 14.0921 0.458871 13.8108C0.177566 13.5295 0.0195313 13.1479 0.0195312 12.7501C0.0195313 12.3523 0.177566 11.9708 0.458871 11.6895C0.740176 11.4082 1.12171 11.2501 1.51953 11.2501H4.55553C4.8035 11.2499 5.04766 11.3112 5.26615 11.4285C5.48464 11.5457 5.67065 11.7154 5.80753 11.9221L8.55753 16.0821L16.4415 3.21612C16.5773 2.99457 16.7684 2.81209 16.9959 2.68657C17.2234 2.56106 17.4797 2.49681 17.7395 2.50012Z" fill="#8FBFFA"/>
</g>
<defs>
<clipPath id="clip0_1546_51437">
<rect width="28" height="28" fill="white" transform="translate(0 0.5)"/>
</clipPath>
</defs>
</svg>
