<svg width="28" height="29" viewBox="0 0 28 29" fill="none" xmlns="http://www.w3.org/2000/svg">
<path d="M3.89453 6.205C3.83715 6.2057 3.78026 6.19438 3.72752 6.17178C3.67478 6.14917 3.62735 6.11578 3.58828 6.07375C3.41328 5.89875 3.41328 5.6275 3.58828 5.4525C5.66203 3.3875 8.40953 2.25 11.3408 2.25C12.417 2.25 13.4933 2.4075 14.517 2.7225C14.6268 2.75682 14.7187 2.83298 14.7727 2.93451C14.8267 3.03604 14.8386 3.15477 14.8058 3.265C14.7358 3.50125 14.4908 3.6325 14.2633 3.55375C13.3147 3.27151 12.3305 3.12711 11.3408 3.125C8.64578 3.125 6.10828 4.175 4.20953 6.0825C4.12203 6.17 4.00828 6.205 3.89453 6.205Z" fill="#D3D3D3"/>
<path d="M2.1875 14.9201C1.9425 14.9201 1.75 14.7276 1.75 14.4826C1.75 9.19758 6.055 4.89258 11.34 4.89258C11.585 4.89258 11.7775 5.08508 11.7775 5.33008C11.7775 5.57508 11.585 5.76758 11.34 5.76758C6.53625 5.76758 2.625 9.67883 2.625 14.4826C2.625 14.7276 2.4325 14.9201 2.1875 14.9201ZM19.5212 14.9201C19.5212 15.1651 19.7137 15.3576 19.9587 15.3576C21.2625 15.3576 22.5138 14.9638 23.5725 14.2113C24.3995 13.6301 25.0745 12.8584 25.5406 11.9614C26.0066 11.0644 26.2499 10.0684 26.25 9.05758C26.25 8.82133 26.0575 8.62008 25.8125 8.62008C25.5675 8.62008 25.375 8.81258 25.375 9.05758C25.375 10.8251 24.5088 12.4788 23.0738 13.5026C22.1607 14.1414 21.0731 14.4836 19.9587 14.4826C19.7137 14.4826 19.5212 14.6751 19.5212 14.9201Z" fill="#D3D3D3"/>
<path d="M24.5 6.12617V4.41992L23.8962 4.87492H19.215C15.5662 4.87492 12.6087 7.96367 12.6087 11.6124V11.9887C12.6087 12.3999 12.9412 12.7324 13.3525 12.7324H17.8938C19.6458 12.7324 21.3262 12.0364 22.5651 10.7975C23.804 9.55858 24.5 7.87826 24.5 6.12617ZM4.375 17.0199V14.5087L5.25 15.3749H12.1538C17.535 15.3749 21.9013 19.7412 21.9013 25.1224V25.6737C21.9013 26.2774 21.4113 26.7674 20.8075 26.7674H14.1225C8.74125 26.7674 4.375 22.4012 4.375 17.0199Z" fill="#00D26A"/>
<path d="M16.3363 10.4313C16.2316 10.4861 16.1097 10.4975 15.9967 10.4631C15.8838 10.4287 15.7889 10.3513 15.7325 10.2476C15.7034 10.1967 15.6848 10.1404 15.6779 10.0822C15.6709 10.024 15.6758 9.96495 15.6921 9.90863C15.7084 9.85231 15.7359 9.79985 15.7729 9.75436C15.8099 9.70887 15.8557 9.67128 15.9075 9.64383L22.9775 5.78508C23.3625 5.56633 23.6075 5.16383 23.6075 4.71758V2.71383C23.6075 2.46883 23.8088 2.26758 24.0537 2.26758C24.2987 2.26758 24.5 2.46883 24.5 2.71383V4.72633C24.5 5.49633 24.08 6.19633 23.4062 6.57258L16.3363 10.4313ZM16.4062 23.3551C16.5112 23.4076 16.6163 23.4338 16.7213 23.4338C16.9488 23.4338 17.1763 23.3113 17.29 23.0926C17.465 22.7688 17.3425 22.3751 17.0275 22.2001L6.615 16.5126C6.33472 16.358 6.10091 16.1313 5.93782 15.8558C5.77473 15.5804 5.6883 15.2664 5.6875 14.9463V11.9888C5.6875 11.6301 5.39 11.3326 5.03125 11.3326C4.6725 11.3326 4.375 11.6301 4.375 11.9888V14.9463C4.375 16.0838 4.99625 17.1251 5.99375 17.6676L16.4062 23.3551Z" fill="#008463"/>
</svg>
