<svg width="28" height="29" viewBox="0 0 28 29" fill="none" xmlns="http://www.w3.org/2000/svg">
<g clip-path="url(#clip0_1546_51658)">
<path d="M15.0527 7.20898C15.0527 7.20898 15.0527 13.9968 15.9277 17.1534C16.3587 18.7087 16.8968 19.6887 18.1874 18.7196L23.1946 18.6693C24.483 19.6537 25.4062 18.7109 25.684 17.1118C26.3402 13.3405 26.3402 7.20898 26.3402 7.20898H15.0527Z" fill="#6D4C41"/>
<path d="M19.5781 15.0736C19.5781 15.0736 16.0781 14.7564 14 18.3373V22.1917L19.5781 15.0736Z" fill="#651FFF"/>
<path d="M28 28.6168L14 28.6211V19.8383C14 17.1521 16.0081 15.5224 18.6069 15.074C20.2934 14.783 21.9362 14.8902 23.4369 15.2446C25.8934 15.8286 28 17.3511 28 19.8383V28.6168Z" fill="#651FFF"/>
<path d="M0 28.6168L14 28.6211V19.8383C14 17.1521 11.8956 15.5224 9.29688 15.074C7.61031 14.783 6.06375 14.8902 4.56313 15.2446C2.10656 15.8286 0 17.3533 0 19.8383V28.6168Z" fill="#00BFA5"/>
<path d="M8.42188 15.0736C8.42188 15.0736 11.9941 14.7564 14 18.3373V22.1917L8.42188 15.0736Z" fill="#00BFA5"/>
<path d="M7.32031 16.713C6.47375 16.713 5.78906 16.0283 5.78906 15.1817V13.7773H8.85156V15.1817C8.85156 16.0283 8.16469 16.713 7.32031 16.713Z" fill="#E59900"/>
<path d="M11.9255 8.64258C11.9255 8.64258 12.7699 8.78914 12.7699 9.69914C12.7699 10.502 12.153 10.8191 11.5362 10.8191V8.64258H11.9255ZM2.70961 8.64258C2.70961 8.64258 1.86523 8.78914 1.86523 9.69914C1.86523 10.502 2.48211 10.8191 3.09898 10.8191V8.64258H2.70961Z" fill="#E59600"/>
<path d="M7.32031 2.68359C3.67813 2.68359 2.72656 5.50547 2.72656 9.47141C2.72656 13.5839 5.36906 14.647 7.32031 14.647C9.24312 14.647 11.9141 13.6145 11.9141 9.47141C11.9141 5.50766 10.9603 2.68359 7.32031 2.68359Z" fill="#FCC21B"/>
<path d="M5.80531 9.84118C5.80531 10.2502 5.53187 10.5827 5.19281 10.5827C4.85375 10.5827 4.57812 10.2502 4.57812 9.84118C4.57812 9.42993 4.85375 9.09962 5.19281 9.09962C5.53187 9.09743 5.80531 9.42993 5.80531 9.84118ZM8.83062 9.84118C8.83062 10.2502 9.10406 10.5827 9.44531 10.5827C9.78438 10.5827 10.06 10.2502 10.06 9.84118C10.06 9.42993 9.78438 9.09962 9.44531 9.09962C9.10406 9.09743 8.83062 9.42993 8.83062 9.84118Z" fill="#444444"/>
<path d="M8.64853 12.3457H5.98853C5.8354 12.3457 5.76978 12.4485 5.8704 12.6016C6.01259 12.816 6.5354 13.2295 7.31634 13.2295C8.09728 13.2295 8.62228 12.816 8.76228 12.6016C8.86509 12.4485 8.79946 12.3457 8.64853 12.3457Z" fill="#513F35"/>
<path d="M7.96001 11.2143C7.7347 11.2777 7.49845 11.3106 7.31689 11.3106C7.13533 11.3106 6.90126 11.2799 6.67376 11.2143C6.57751 11.1859 6.53814 11.2777 6.57314 11.339C6.64533 11.4659 6.93408 11.7196 7.3147 11.7196C7.69533 11.7196 7.98626 11.4659 8.05626 11.339C8.09564 11.2777 8.05845 11.1859 7.96001 11.2143Z" fill="#E59600"/>
<path d="M7.42914 2.1643C7.42914 2.1643 7.35914 2.16211 7.32633 2.16211C7.2957 2.16211 7.22352 2.1643 7.22352 2.1643C3.29695 2.24086 2.11133 4.60555 2.11133 6.24398C2.11133 7.83648 2.11352 9.0068 2.11352 9.0068C2.11352 9.0068 2.17695 8.94117 2.2907 8.85148C2.4132 8.75523 2.55102 8.70273 2.55102 8.70273L2.75008 10.0327L4.06039 7.29617C4.06914 7.27867 4.08664 7.26992 4.10414 7.27211L4.8807 7.35742C5.66164 7.44492 6.44477 7.48648 7.22789 7.48867V7.49086H7.43352V7.48867C8.21664 7.48648 8.99976 7.44492 9.7807 7.35742L10.5573 7.27211C10.577 7.26992 10.5945 7.28086 10.601 7.29617L11.9113 10.0327L12.1104 8.70273C12.1104 8.70273 12.246 8.75742 12.3707 8.85148C12.4866 8.94117 12.5479 9.0068 12.5479 9.0068C12.5479 9.0068 12.5501 7.83648 12.5501 6.24398C12.5435 4.60555 11.3579 2.24086 7.42914 2.1643Z" fill="#6D4C41"/>
<path d="M0 21.7441H1.79156V28.6151H0V21.7441ZM26.2806 21.7441H28.0306V28.6151H26.2806V21.7441Z" fill="#FCC21B"/>
<path d="M20.7109 16.7144C19.8644 16.7144 19.1797 16.0297 19.1797 15.1831V13.875H22.2422V15.1831C22.2422 16.0297 21.5553 16.7144 20.7109 16.7144Z" fill="#E59900"/>
<path d="M20.7121 12.2491C23.8291 12.2491 26.3559 9.97797 26.3559 7.17633C26.3559 4.37469 23.8291 2.10352 20.7121 2.10352C17.5952 2.10352 15.0684 4.37469 15.0684 7.17633C15.0684 9.97797 17.5952 12.2491 20.7121 12.2491Z" fill="#6D4C41"/>
<path d="M20.7112 3.32422C17.2418 3.32422 16.334 6.01484 16.334 9.79266C16.334 13.5705 19.0246 14.7233 20.7112 14.7233C22.3977 14.7233 25.0884 13.5705 25.0884 9.79266C25.0884 6.01484 24.1805 3.32422 20.7112 3.32422Z" fill="#FCC21B"/>
<path d="M19.2123 9.94789C19.2123 10.3526 18.9411 10.6807 18.6042 10.6807C18.2695 10.6807 17.9961 10.3526 17.9961 9.94789C17.9961 9.54101 18.2695 9.21289 18.6042 9.21289C18.9411 9.21289 19.2123 9.5432 19.2123 9.94789ZM22.207 9.94789C22.207 10.3526 22.4783 10.6807 22.8152 10.6807C23.1498 10.6807 23.4233 10.3526 23.4233 9.94789C23.4233 9.54101 23.1498 9.21289 22.8152 9.21289C22.4783 9.21289 22.207 9.5432 22.207 9.94789Z" fill="#444444"/>
<path d="M22.0356 6.29C21.5741 6.73406 19.2838 8.79906 16.125 9.33719V5.10219C16.125 5.10219 17.4878 2.39844 20.7581 2.39844C24.0284 2.39844 25.3913 5.17219 25.3913 5.17219V9.33719C25.3913 9.33719 23.2475 8.51469 22.1713 6.31625C22.1659 6.30367 22.1576 6.29258 22.147 6.28398C22.1364 6.27537 22.1239 6.26952 22.1104 6.26692C22.097 6.26433 22.0832 6.26507 22.0701 6.2691C22.0571 6.27312 22.0452 6.2803 22.0356 6.29Z" fill="#6D4C41"/>
<path d="M22.0264 12.4277H19.3927C19.2417 12.4277 19.1761 12.5284 19.2767 12.6815C19.4167 12.8937 19.9352 13.3027 20.7074 13.3027C21.4795 13.3027 22.0002 12.8937 22.138 12.6815C22.243 12.5284 22.1774 12.4277 22.0264 12.4277Z" fill="#4C3734"/>
<path d="M21.3454 11.392C21.1223 11.4555 20.8882 11.4861 20.7089 11.4861C20.5295 11.4861 20.2976 11.4555 20.0723 11.392C19.976 11.3658 19.9389 11.4555 19.9739 11.5167C20.0439 11.6414 20.3304 11.893 20.7089 11.893C21.0873 11.893 21.3717 11.6414 21.4439 11.5167C21.4789 11.4555 21.4417 11.3636 21.3454 11.392Z" fill="#E48C15"/>
<path d="M18.7165 28.7448H9.28405C9.21623 28.7448 9.28405 27.183 9.28405 27.183C9.28405 25.0305 12.025 24.3086 12.9765 24.3086H15.0262C15.9778 24.3086 18.7165 25.0305 18.7165 27.183V27.2442C18.7165 27.3208 18.7844 28.7448 18.7165 28.7448Z" fill="#B2DFDB"/>
<path d="M13.9986 25.9404C13.7265 25.9404 13.4655 25.8323 13.2731 25.6399C13.0807 25.4475 12.9727 25.1865 12.9727 24.9145V24.127H15.0267V24.9145C15.0267 25.481 14.5673 25.9404 13.9986 25.9404Z" fill="#E59900"/>
<path d="M14.0008 23.5542C16.5016 23.5542 18.5289 21.6454 18.5289 19.2908C18.5289 16.9361 16.5016 15.0273 14.0008 15.0273C11.5 15.0273 9.47266 16.9361 9.47266 19.2908C9.47266 21.6454 11.5 23.5542 14.0008 23.5542Z" fill="#6D4C41"/>
<path d="M17.7082 20.3457C17.7082 20.3457 18.3973 20.466 18.3973 21.2076C18.3973 21.8638 17.8941 22.122 17.391 22.122V20.3457H17.7082ZM10.2926 20.3457C10.2926 20.3457 9.60352 20.466 9.60352 21.2076C9.60352 21.8638 10.1066 22.122 10.6098 22.122V20.3457H10.2926Z" fill="#E59600"/>
<path d="M16.6253 18.1159C15.9975 17.3349 14.9168 16.998 14.0003 16.998C13.0859 16.998 12.0031 17.3327 11.3753 18.1159C10.7606 18.8815 10.439 19.868 10.4434 21.1937C10.4478 22.2634 10.7234 23.0837 11.4978 23.7312C12.2153 24.3305 13.0465 24.6543 13.9456 24.6543C14.8293 24.6543 15.805 24.3459 16.4962 23.7377C17.2553 23.0705 17.5484 22.2634 17.5528 21.1959C17.5615 19.868 17.2378 18.8815 16.6253 18.1159Z" fill="#FCC21B"/>
<path d="M14.5189 21.9961C14.3351 22.0486 14.147 22.0727 14.0004 22.0727C13.8539 22.0727 13.6636 22.0464 13.482 21.9961C13.4032 21.9742 13.3726 22.0486 13.4011 22.0967C13.4601 22.1996 13.692 22.4052 14.0004 22.4052C14.3089 22.4052 14.5429 22.1996 14.5998 22.0967C14.6282 22.0486 14.5976 21.9742 14.5189 21.9961Z" fill="#E59600"/>
<path d="M15.0749 22.8418H12.9268C12.8043 22.8418 12.7496 22.9249 12.8328 23.0496C12.9465 23.2224 13.3709 23.5571 14.0009 23.5571C14.6331 23.5571 15.0553 23.2224 15.1712 23.0496C15.2521 22.9249 15.1996 22.8418 15.0749 22.8418Z" fill="#513F35"/>
<path d="M12.5783 21.2237C12.5783 21.5409 12.3661 21.7969 12.1036 21.7969C11.8411 21.7969 11.6289 21.5409 11.6289 21.2237C11.6289 20.9066 11.8433 20.6484 12.1036 20.6484C12.3661 20.6506 12.5783 20.9066 12.5783 21.2237ZM16.3736 21.2237C16.3736 21.5409 16.1614 21.7969 15.8989 21.7969C15.6364 21.7969 15.4242 21.5409 15.4242 21.2237C15.4242 20.9066 15.6386 20.6484 15.8989 20.6484C16.1614 20.6506 16.3736 20.9066 16.3736 21.2237Z" fill="#444444"/>
<path d="M10.2483 20.9797C10.2483 20.9797 11.2808 19.8991 11.6592 19.5359C11.6833 19.5119 11.7227 19.5316 11.7183 19.5666C11.703 19.7175 11.692 19.8816 11.6855 19.98C11.6833 20.0259 11.7248 20.0631 11.7708 20.0544C12.5123 19.9144 13.2255 19.6059 13.4158 19.5184C13.4398 19.5075 13.4639 19.5272 13.4639 19.5512C13.4595 19.6891 13.4617 19.8203 13.4639 19.8991C13.4639 19.9428 13.5033 19.9756 13.547 19.9691C14.2273 19.8641 14.7939 19.5863 14.982 19.4856C15.0258 19.4616 15.0739 19.4572 15.122 19.4747C15.4742 19.6016 15.903 19.8509 16.0583 19.9428C16.0933 19.9625 16.137 19.9516 16.1567 19.9166C16.2158 19.8094 16.2989 19.6453 16.3361 19.5666C16.347 19.5447 16.3755 19.5403 16.3908 19.5556C16.9442 20.1025 17.7536 20.9775 17.7536 20.9775L18.3245 19.1444C18.3245 19.1444 17.3992 15.8828 14.1858 15.8828C10.9723 15.8828 9.75391 19.3653 9.75391 19.3653L10.2483 20.9797Z" fill="#6D4C41"/>
</g>
<defs>
<clipPath id="clip0_1546_51658">
<rect width="28" height="28" fill="white" transform="translate(0 0.5)"/>
</clipPath>
</defs>
</svg>
