<svg width="28" height="29" viewBox="0 0 28 29" fill="none" xmlns="http://www.w3.org/2000/svg">
<path d="M26.3554 17.3065L26.3598 16.9346C26.3773 15.563 26.3926 14.1455 26.1848 12.7827C26.0098 11.6343 25.5767 9.96086 24.5092 8.52148L24.052 8.86055C25.0495 10.2059 25.4564 11.783 25.6204 12.868C25.8217 14.1849 25.8042 15.5784 25.7889 16.9259L25.7845 17.2977L26.3554 17.3065Z" fill="#558B2F"/>
<path d="M24.472 8.76227C24.5901 8.2657 24.6295 7.44977 24.2948 6.94664C23.8616 6.29695 23.1201 6.0957 22.5448 6.0957C22.3654 6.0957 22.1029 6.12633 21.9585 6.23352C22.0766 6.31445 22.1751 6.4282 22.2407 6.55508C22.3588 6.78258 22.3676 7.04945 22.4113 7.30102C22.4595 7.57883 22.5841 8.05352 22.9232 8.38602C23.2951 8.75133 24.0716 8.90445 24.4523 8.93508C24.461 8.8782 24.4676 8.81914 24.472 8.76227ZM26.1388 6.97727C25.8632 6.9532 25.2901 7.34914 25.0057 8.01195C24.7148 8.69008 24.881 9.19102 24.8963 9.50383C25.1435 9.49508 25.7976 8.95258 25.9616 8.62227C26.2745 7.99227 26.1673 7.34695 26.1388 6.97727ZM27.3223 8.77539C27.0576 8.69664 26.4145 8.96789 26.0032 9.5607C25.581 10.1666 25.6423 10.6895 25.5963 11.0001C25.8413 11.0416 26.5916 10.6413 26.817 10.3526C27.2523 9.79695 27.2763 9.14289 27.3223 8.77539ZM22.197 9.54539C22.3457 9.31133 23.0063 9.09258 23.7063 9.26758C24.4238 9.44695 24.7213 9.88008 24.962 10.0835C24.8045 10.276 23.9776 10.4685 23.6166 10.4007C22.9232 10.2673 22.4748 9.79039 22.197 9.54539ZM22.8204 11.3173C22.9538 11.0745 23.6013 10.8163 24.3101 10.9476C25.0363 11.081 25.3601 11.4966 25.6116 11.6848C25.4673 11.886 24.6535 12.1288 24.2882 12.0829C23.5882 11.9932 23.1091 11.5448 22.8204 11.3173Z" fill="#558B2F"/>
<path d="M17.9752 14.9394C18.0671 13.2463 18.6971 11.3038 17.0105 7.98751C15.8621 5.7322 13.3924 3.80063 12.3621 4.13313C11.6205 4.49626 12.4824 5.98813 13.1933 6.79095C13.2568 6.86095 13.1955 6.97032 13.1015 6.95501C12.7821 6.90032 12.3971 6.89595 12.2374 7.09063C11.8568 7.55657 12.4015 8.2172 12.8674 8.66563C12.9396 8.73563 12.8761 8.85595 12.7777 8.83626C12.3861 8.75313 11.9749 8.75313 11.8393 8.92157C11.2749 9.61501 12.1149 11.6494 12.6005 12.4019C13.178 13.2988 13.7949 14.1825 14.5868 14.8956C15.3786 15.6088 16.3674 16.1469 17.4305 16.2322C17.4743 16.2366 17.5202 16.2388 17.5596 16.2191C17.6165 16.1928 17.6471 16.1294 17.669 16.0703C17.8549 15.5694 17.9227 15.3725 17.9752 14.9394Z" fill="#B0BEC5"/>
<path d="M24.8821 13.3698C23.8146 12.4291 22.1696 11.8188 20.7674 12.0463C19.363 12.276 17.9412 13.6344 17.228 14.8638C17.1799 14.9469 17.123 15.0388 17.029 15.0541C16.9262 15.0716 16.8409 14.9841 16.7643 14.9119C16.0118 14.1835 15.0296 13.2844 13.7937 11.6963C13.2512 10.9985 10.5999 7.68444 7.97273 5.7835C5.71305 4.14944 2.86492 3.75131 1.92648 4.39881C1.45617 4.72256 1.3643 5.41819 1.56992 5.95194C1.77555 6.48569 2.47992 7.07413 3.0268 7.33225C2.3443 7.26444 1.48242 7.80256 1.48242 8.48725C1.48242 9.64881 3.48836 10.9241 4.14461 11.121C3.56711 11.1691 3.12961 11.8254 3.25211 12.3919C3.48836 13.4769 5.43961 13.9866 6.01492 14.0501C5.47898 14.1813 5.19024 14.8616 5.37399 15.3823C5.67367 16.231 7.60305 16.756 8.14117 16.8851C7.66211 17.3313 7.85461 18.0291 8.35992 18.4426C8.86742 18.856 9.56305 19.101 10.2149 19.1469C8.70555 18.9829 6.88774 18.7051 5.36961 18.681C3.9893 18.6591 1.8543 19.136 0.570234 20.3304C2.42086 21.0982 4.57773 22.7673 5.40461 25.016C6.76086 24.9591 7.74961 24.1738 8.8193 23.3404C8.98117 23.2157 9.14742 23.0757 9.34867 23.0473C9.49523 23.0254 9.64399 23.0669 9.78399 23.1173C10.3637 23.3251 13.0937 24.7273 16.5193 24.561C19.153 24.4341 21.4368 23.2922 22.5196 21.1879C23.5609 19.1666 23.6702 16.9813 23.7818 16.3798C23.8934 15.7804 24.4162 15.4676 24.9434 15.3188C24.8734 14.7151 24.9543 13.9757 24.8821 13.3698Z" fill="#E0E0E0"/>
<path d="M27.2451 14.189C26.5582 13.8565 25.8451 13.5765 25.1145 13.3534C25.0248 13.3249 24.9307 13.2987 24.8367 13.3162C24.6879 13.3424 24.6245 13.3971 24.5588 13.5349C24.4035 13.8631 24.4692 14.9874 24.5545 15.1953C24.6135 15.3462 24.6835 15.4337 24.8454 15.4271C24.9067 15.4249 24.9635 15.4053 25.0204 15.3856C25.2326 15.3134 25.447 15.2412 25.6592 15.169C26.1798 14.994 26.6982 14.8168 27.2167 14.6331C27.2845 14.609 27.3917 14.5653 27.4201 14.4712C27.4529 14.364 27.337 14.2503 27.2451 14.189Z" fill="#FFCA28"/>
<path d="M21.8504 15.0316C21.4215 15.0316 21.0738 14.684 21.0738 14.2551C21.0738 13.8262 21.4215 13.4785 21.8504 13.4785C22.2793 13.4785 22.627 13.8262 22.627 14.2551C22.627 14.684 22.2793 15.0316 21.8504 15.0316Z" fill="black"/>
<path d="M3.03031 7.3355C3.54 7.64612 3.94688 7.86268 4.45656 8.09675C4.5375 8.13393 5.07563 8.38331 5.55906 8.57581C5.80625 8.67425 6.12781 8.7705 6.13875 8.82956C6.13875 8.94769 5.8325 8.88206 5.59406 8.83393C4.98375 8.70925 4.31656 8.45987 3.74781 8.18425C3.58375 8.10331 2.62563 7.57175 2.39375 7.42737C2.59719 7.33331 2.84656 7.32018 3.03031 7.3355ZM4.14813 11.1221C5.25063 11.5661 6.59375 11.7039 7.00281 11.7783C7.29813 11.8308 7.89531 11.8155 7.89531 11.9271C7.89531 12.0102 7.37031 12.0102 7.06406 12.0102C5.90688 12.0167 4.62938 11.8483 3.645 11.3364C3.74344 11.2358 3.99281 11.1221 4.14813 11.1221ZM6.01844 14.0533C6.56531 14.1889 7.85375 14.2742 8.41594 14.318C8.97156 14.3596 9.39594 14.2939 9.42219 14.3946C9.45063 14.5171 8.88188 14.5477 8.58 14.563C7.70938 14.6067 7.075 14.6527 6.07531 14.4821C5.98125 14.4667 5.55031 14.3727 5.57875 14.3377C5.67063 14.2261 5.86094 14.0883 6.01844 14.0533ZM8.14687 16.8861C8.61062 16.9714 8.9825 17.0196 9.42875 17.0655C9.75031 17.0983 10.2447 17.1289 10.6691 17.1508C11.0147 17.1705 11.4609 17.1114 11.4609 17.2011C11.4609 17.3477 10.9687 17.398 10.6231 17.4067C9.84219 17.4264 8.93875 17.4155 8.03531 17.1989C7.99594 17.1902 7.95 17.1508 7.95438 17.1399C7.99594 17.0546 8.07906 16.9408 8.14687 16.8861Z" fill="#B0BEC5"/>
</svg>
