<svg width="28" height="29" viewBox="0 0 28 29" fill="none" xmlns="http://www.w3.org/2000/svg">
<path d="M1.18828 16.8222C1.2014 16.7654 2.27109 10.4041 7.92578 10.8985C11.2158 11.185 13.4995 13.4185 13.5258 16.7194C13.5345 17.8832 13.5739 19.8935 13.4777 20.8079C13.0773 24.6535 11.7845 27.0269 11.6117 27.0707C10.7017 27.2938 2.56859 27.8035 1.96703 26.5829C0.580151 23.7829 0.873276 18.7779 1.18828 16.8222Z" fill="#312D2D"/>
<path d="M5.92312 24.8046H7.56812C9.46906 24.6603 12.2844 25.5134 12.9209 27.6243H0.570312C1.20688 25.5156 4.02219 24.6603 5.92312 24.8046Z" fill="url(#paint0_linear_1546_51467)"/>
<path d="M6.69648 26.2755C6.30198 26.2755 5.92362 26.1188 5.64466 25.8399C5.3657 25.5609 5.20898 25.1826 5.20898 24.788V23.7949H8.18617V24.788C8.18525 25.1827 8.02793 25.5608 7.7487 25.8396C7.46946 26.1184 7.09109 26.2752 6.69648 26.2755Z" fill="#EDC391"/>
<path d="M8.20621 12.6685C5.54839 12.3425 2.84464 14.016 2.32839 18.2072C1.91496 21.5738 3.75464 23.8204 5.49152 24.6844C5.90496 24.89 6.31402 25.0191 6.68371 25.065C7.05121 25.111 7.47558 25.0847 7.92402 24.9863C9.81839 24.5707 12.1525 22.8338 12.5681 19.4629C13.0821 15.2716 10.864 12.9944 8.20621 12.6685Z" fill="#F9DDBD"/>
<path d="M8.01265 21.1099C7.99791 21.101 7.98156 21.095 7.96453 21.0924L6.8839 20.959C6.8664 20.959 6.85109 20.9612 6.83359 20.9655C6.73078 20.994 6.66515 21.088 6.69796 21.2018C6.73078 21.3155 6.90796 21.6459 7.34109 21.6984C7.77421 21.7509 8.02578 21.4752 8.08703 21.3724C8.14828 21.2696 8.10671 21.1624 8.01265 21.1099Z" fill="#DBA689"/>
<path d="M6.35119 18.0452C6.23088 17.8374 5.93338 17.5202 5.29025 17.4415C4.64713 17.3627 4.28181 17.5968 4.11556 17.7696C4.08449 17.8001 4.06442 17.8401 4.05848 17.8832C4.05254 17.9264 4.06108 17.9703 4.08275 18.0081C4.11775 18.0671 4.2315 18.1327 4.36931 18.1043C4.50713 18.0759 4.78275 17.9731 5.21806 18.0234C5.65338 18.0802 5.89619 18.2465 6.02306 18.3077C6.14994 18.369 6.27681 18.334 6.32494 18.2837C6.35464 18.2522 6.37328 18.2119 6.37801 18.1689C6.38275 18.1258 6.37333 18.0824 6.35119 18.0452ZM11.4262 18.6687C11.3059 18.4609 11.0084 18.1437 10.3653 18.0649C9.72213 17.9862 9.35681 18.2202 9.19056 18.3931C9.15949 18.4236 9.13942 18.4635 9.13348 18.5067C9.12754 18.5498 9.13608 18.5937 9.15775 18.6315C9.19275 18.6906 9.3065 18.7562 9.44431 18.7277C9.58213 18.6993 9.85775 18.5965 10.2931 18.6468C10.7284 18.7037 10.9712 18.8699 11.0981 18.9312C11.2249 18.9924 11.3518 18.9574 11.3999 18.9071C11.4524 18.8546 11.4809 18.7606 11.4262 18.6687Z" fill="#454140"/>
<path d="M10.8892 20.0262C10.9421 19.5957 10.6486 19.2054 10.2337 19.1544C9.81882 19.1035 9.43962 19.4112 9.38675 19.8416C9.33388 20.2721 9.62735 20.6624 10.0422 20.7134C10.4571 20.7643 10.8363 20.4567 10.8892 20.0262Z" fill="#312D2D"/>
<path d="M5.81108 19.4012C5.86396 18.9707 5.57048 18.5804 5.15559 18.5294C4.74069 18.4785 4.3615 18.7862 4.30862 19.2166C4.25575 19.6471 4.54923 20.0374 4.96412 20.0884C5.37902 20.1393 5.75821 19.8317 5.81108 19.4012Z" fill="#312D2D"/>
<path d="M8.55448 22.4442C8.03167 22.6739 6.43917 22.477 5.98854 22.1292C5.73042 21.928 5.41323 22.1467 5.49854 22.4158C5.58167 22.6783 6.38011 23.3652 7.13261 23.457C7.88511 23.5489 8.81479 23.0764 8.95917 22.8402C9.10573 22.6017 8.85417 22.313 8.55448 22.4442Z" fill="#444444"/>
<path d="M7.92342 10.9024C2.26873 10.408 1.20123 16.7671 1.1881 16.824C1.04154 17.7383 0.899352 19.3177 0.929977 21.0261L2.51373 21.1377C2.4656 20.2715 3.14373 16.9508 4.57435 16.848C8.13341 16.5877 9.76091 14.969 9.76091 14.969C10.1328 16.1415 11.5897 17.419 12.1103 17.9024C12.5369 18.2983 12.294 20.4596 12.2131 21.0524H13.4512L13.4775 20.814C13.5715 19.8996 13.5344 17.8893 13.5256 16.7255C13.4972 13.4202 11.2134 11.189 7.92342 10.9024Z" fill="#312D2D"/>
<path d="M13.523 16.7211C13.4968 13.4202 11.213 11.189 7.92301 10.9002C2.26832 10.408 1.20082 16.7671 1.18769 16.824C0.89457 18.6505 0.618945 23.1393 1.71269 26.0049C2.87863 25.0774 4.61769 24.7055 5.92363 24.8061H7.56863C8.99488 24.6968 10.9352 25.1496 12.0836 26.274C12.5474 25.2699 13.208 23.3668 13.4727 20.8096C13.5711 19.8974 13.5318 17.8849 13.523 16.7211Z" fill="url(#paint1_radial_1546_51467)"/>
<path d="M17.1522 1.31836C14.8466 1.31836 14 3.67211 14 3.67211C14 3.67211 13.1644 1.31836 10.8434 1.31836C9.10001 1.31836 7.10939 2.70086 7.84439 5.84211C8.57939 8.98336 14.0044 12.899 14.0044 12.899C14.0044 12.899 19.4119 8.98336 20.1469 5.84211C20.8819 2.70086 19.0356 1.31836 17.1522 1.31836Z" fill="#EF5592"/>
<path d="M10.4864 1.55242C12.2955 1.55242 13.1945 3.49711 13.4855 4.2868C13.527 4.39836 13.6845 4.40273 13.7305 4.29336L13.9952 3.6743C13.6211 2.48211 12.5952 1.31836 10.843 1.31836C10.1167 1.31836 9.35109 1.55898 8.75391 2.0643C9.27891 1.71648 9.89797 1.55242 10.4864 1.55242ZM17.1517 1.31836C16.5939 1.31836 16.1236 1.48023 15.7277 1.72305C16.0055 1.61586 16.3139 1.55242 16.653 1.55242C18.3592 1.55242 19.8839 2.84523 19.1948 5.83555C18.6042 8.40148 15.148 11.5143 14.0936 12.7021C14.0258 12.7787 14.0039 12.9012 14.0039 12.9012C14.0039 12.9012 19.4114 8.98555 20.1464 5.8443C20.8814 2.70086 18.8952 1.31836 17.1517 1.31836Z" fill="#DA2E75"/>
<path d="M9.05651 2.98446C9.45026 2.49227 10.1568 2.0854 10.754 2.55352C11.0778 2.80727 10.9356 3.3279 10.6468 3.54665C10.2246 3.86602 9.85933 4.05852 9.60339 4.55946C9.45026 4.86134 9.3562 5.18946 9.31026 5.52634C9.29276 5.65977 9.11776 5.6904 9.05214 5.57446C8.60589 4.78696 8.4812 3.70415 9.05651 2.98446ZM15.3806 4.01915C15.1946 4.01915 15.0656 3.83977 15.1334 3.66696C15.2569 3.34893 15.4185 3.04704 15.6146 2.7679C15.9034 2.36321 16.4503 2.12915 16.7981 2.37196C17.1546 2.62352 17.1087 3.12227 16.8571 3.36509C16.3212 3.8879 15.6475 4.01915 15.3806 4.01915Z" fill="#F386AB"/>
<path d="M22.0938 24.8046H20.4488C18.5456 24.6602 15.7303 25.5155 15.0938 27.6243H27.4444C26.8122 25.5155 23.9947 24.6602 22.0938 24.8046Z" fill="url(#paint2_linear_1546_51467)"/>
<path d="M21.2194 26.275C20.8249 26.275 20.4465 26.1183 20.1676 25.8394C19.8886 25.5604 19.7319 25.182 19.7319 24.7875V23.7944H22.7091V24.7875C22.7081 25.1821 22.5508 25.5603 22.2716 25.8391C21.9924 26.1179 21.614 26.2747 21.2194 26.275ZM24.5006 17.9254L23.3675 18.0654L17.2359 18.8179L16.1028 18.9579C15.1972 19.0694 14.5541 19.9488 14.6722 20.9135C14.7903 21.8782 15.6281 22.576 16.5338 22.4644L17.6669 22.3244L23.7984 21.5719L24.9316 21.4319C25.8372 21.3204 26.4803 20.441 26.3622 19.4763C26.2441 18.5138 25.4063 17.816 24.5006 17.9254Z" fill="#C48E6A"/>
<path d="M19.5407 12.2411C16.8675 12.5693 14.7413 15.7324 15.2466 19.8471C15.7497 23.9399 18.5475 25.6483 21.1463 25.3311C23.745 25.0118 26.0463 22.6755 25.5454 18.5827C25.04 14.468 22.2138 11.913 19.5407 12.2411Z" fill="#E0BB95"/>
<path d="M16.3748 18.9425C16.7795 18.19 17.9236 18.0259 18.5732 18.5444C18.6848 18.634 18.8073 18.7544 18.7504 18.9119C18.687 19.0869 18.5142 19.0803 18.3676 19.0409C17.9761 18.9359 17.5823 18.9162 17.1907 19.0475C17.0223 19.1044 16.8823 19.194 16.7248 19.2728C16.5126 19.3778 16.2589 19.1744 16.3748 18.9425ZM23.5564 18.4372C23.1954 18.33 22.8389 18.2862 22.4648 18.3759C22.2955 18.4185 22.1323 18.4824 21.9792 18.5662C21.8589 18.6319 21.7298 18.7303 21.5876 18.6581C21.1807 18.4459 21.7954 17.9406 21.9814 17.8312C22.3839 17.595 22.8914 17.5512 23.3267 17.7153C23.4995 17.7809 23.692 17.8815 23.8079 18.0303C23.9545 18.214 23.8057 18.5028 23.5564 18.4372Z" fill="#AB872F"/>
<path d="M17.7843 20.8261C18.2027 20.7747 18.4989 20.3821 18.4457 19.9492C18.3926 19.5163 18.0102 19.2071 17.5917 19.2585C17.1732 19.3099 16.8771 19.7025 16.9303 20.1354C16.9834 20.5682 17.3658 20.8775 17.7843 20.8261Z" fill="#5D4037"/>
<path d="M22.8936 20.1991C23.3121 20.1477 23.6083 19.7552 23.5551 19.3223C23.5019 18.8894 23.1196 18.5801 22.7011 18.6315C22.2826 18.6829 21.9865 19.0755 22.0396 19.5084C22.0928 19.9413 22.4751 20.2505 22.8936 20.1991Z" fill="#5D4037"/>
<path d="M21.0096 21.0749C20.9931 21.0708 20.9762 21.0686 20.9593 21.0684L19.8721 21.2018C19.8568 21.2062 19.8393 21.2127 19.8239 21.2215C19.7299 21.274 19.6883 21.3812 19.7496 21.4862C19.8086 21.589 20.0624 21.8668 20.4999 21.8143C20.9352 21.7618 21.1146 21.4293 21.1474 21.3155C21.1802 21.1996 21.1146 21.1034 21.0096 21.0749Z" fill="#C48E6A"/>
<path d="M21.8622 22.2323C21.4094 22.5845 19.8038 22.7814 19.2788 22.5495C18.9769 22.416 18.721 22.707 18.8697 22.9498C19.0141 23.186 19.9613 23.6607 20.7182 23.5689C21.475 23.477 22.2669 22.7879 22.3522 22.5232C22.4375 22.252 22.1225 22.031 21.8622 22.2323Z" fill="#6D4C41"/>
<path d="M19.4268 11.3136H19.4224C12.4465 12.2105 14.8549 20.0067 14.8549 20.0067C14.8549 20.0067 15.2684 20.7899 15.4565 21.1355C15.4828 21.1858 15.5593 21.1705 15.5637 21.1136C15.6315 20.4289 15.6599 17.9986 15.8415 17.2483C15.9487 16.8042 16.3578 16.5067 16.8128 16.5308C17.9481 16.592 19.8446 16.4411 19.849 16.4389C21.0521 16.2924 22.3384 16.0036 23.0078 15.7958C23.4431 15.6602 23.9134 15.8527 24.1234 16.2574C24.4799 16.9399 25.3024 19.2258 25.5365 19.882C25.5562 19.9367 25.6328 19.9324 25.6459 19.8755L25.9587 18.6417C25.9609 18.6417 26.4115 10.4955 19.4268 11.3136Z" fill="#AB872F"/>
<path d="M25.9611 18.6401C25.9611 18.6401 26.4118 10.4916 19.4271 11.3119H19.4227C19.3133 11.3251 19.2083 11.3404 19.1033 11.3579C18.9012 11.3911 18.7005 11.4327 18.5018 11.4826C18.4886 11.4869 18.4755 11.4891 18.4624 11.4935C12.6765 12.9547 14.8552 20.0051 14.8552 20.0051L15.4568 21.1272C15.483 21.1776 15.5574 21.1622 15.564 21.1054C15.6318 20.4141 15.6602 17.9947 15.8418 17.2444C15.8937 17.0299 16.0195 16.8404 16.1971 16.7093C16.3746 16.5781 16.5927 16.5135 16.813 16.5269C17.513 16.5663 18.6199 16.586 19.823 16.4394L20.0527 16.4372C20.0571 16.4372 20.0615 16.4372 20.0658 16.4351C21.269 16.2885 22.3386 15.9997 23.008 15.7919C23.4433 15.6563 23.9136 15.8488 24.1236 16.2535C24.4824 16.9404 25.3093 19.2416 25.539 19.8869C25.5586 19.9394 25.633 19.9372 25.6483 19.8826C25.7468 19.5041 25.9611 18.6401 25.9611 18.6401Z" fill="url(#paint3_radial_1546_51467)"/>
<defs>
<linearGradient id="paint0_linear_1546_51467" x1="6.74672" y1="27.5189" x2="6.74672" y2="24.751" gradientUnits="userSpaceOnUse">
<stop stop-color="#530EEB"/>
<stop offset="1" stop-color="#651FFF"/>
</linearGradient>
<radialGradient id="paint1_radial_1546_51467" cx="0" cy="0" r="1" gradientTransform="matrix(6.71565 0.334169 -0.4478 9.00508 7.36351 19.8785)" gradientUnits="userSpaceOnUse">
<stop offset="0.765" stop-color="#454140" stop-opacity="0"/>
<stop offset="0.966" stop-color="#454140"/>
</radialGradient>
<linearGradient id="paint2_linear_1546_51467" x1="21.2704" y1="27.5189" x2="21.2704" y2="24.751" gradientUnits="userSpaceOnUse">
<stop stop-color="#009E89"/>
<stop offset="1" stop-color="#00BFA5"/>
</linearGradient>
<radialGradient id="paint3_radial_1546_51467" cx="0" cy="0" r="1" gradientTransform="matrix(5.85131 -0.718665 0.810635 6.60182 20.2353 17.9285)" gradientUnits="userSpaceOnUse">
<stop offset="0.794" stop-color="#BFA055" stop-opacity="0"/>
<stop offset="1" stop-color="#BFA055"/>
</radialGradient>
</defs>
</svg>
