<svg width="28" height="29" viewBox="0 0 28 29" fill="none" xmlns="http://www.w3.org/2000/svg">
<path fill-rule="evenodd" clip-rule="evenodd" d="M12.7422 3.5625C12.7422 2.56719 13.366 1.86719 14 1.86719C14.634 1.86719 15.2578 2.56719 15.2578 3.5625C15.2578 4.55781 14.634 5.25781 14 5.25781C13.366 5.25781 12.7422 4.55781 12.7422 3.5625ZM7.43482 2.47012L8.31518 2.02988C9.40401 3.66504 10.7702 4.71772 12.2163 5.18913C12.6159 5.82 13.248 6.24219 14 6.24219C14.752 6.24219 15.3842 5.82 15.7837 5.18918C17.2298 4.71766 18.596 3.66504 19.6848 2.02988L20.5652 2.47012C19.7398 4.12086 17.7559 5.57691 16.0705 6.54116L15.2942 16.6328H14.4922V11H13.5078V16.6328H12.7058L11.9295 6.54116C10.2441 5.57691 8.26016 4.12086 7.43482 2.47012Z" fill="#2275FF"/>
<path d="M9.24219 17.6172V22.8672H1.36719V27.1328H26.6328V25.4922H18.7578V17.6172H9.24219Z" fill="#434242"/>
</svg>
